<svg width="23" height="20" viewBox="0 0 23 20" fill="none" xmlns="http://www.w3.org/2000/svg">
<path d="M5.68552 6.51304L3.09018 8.96522L10.2251 15.7391L23 3.62609L20.4047 1.16522L10.2251 10.8174L5.68552 6.51304Z" fill="white"/>
<path d="M18.2587 17.3913C18.2587 17.6219 18.1621 17.8431 17.9901 18.0062C17.8181 18.1693 17.5848 18.2609 17.3416 18.2609H2.75124C2.50802 18.2609 2.27475 18.1693 2.10277 18.0062C1.93078 17.8431 1.83416 17.6219 1.83416 17.3913V2.6087C1.83416 2.37807 1.93078 2.1569 2.10277 1.99382C2.27475 1.83074 2.50802 1.73913 2.75124 1.73913H17.2591L18.7081 0.356522C18.2932 0.126574 17.8221 0.00365521 17.3416 0H2.75124C2.02157 0 1.32178 0.274844 0.80582 0.764069C0.289862 1.25329 0 1.91683 0 2.6087V17.3913C0 18.0832 0.289862 18.7467 0.80582 19.2359C1.32178 19.7252 2.02157 20 2.75124 20H17.3416C18.0713 20 18.7711 19.7252 19.287 19.2359C19.803 18.7467 20.0929 18.0832 20.0929 17.3913V8.84348L18.2587 10.5826V17.3913Z" fill="white"/>
</svg>
