<svg width="20" height="20" viewBox="0 0 20 20" fill="none" xmlns="http://www.w3.org/2000/svg">
<path d="M10 3.2C11.3449 3.2 12.6596 3.59881 13.7779 4.34601C14.8961 5.0932 15.7677 6.15521 16.2824 7.39775C16.7971 8.64029 16.9317 10.0075 16.6693 11.3266C16.407 12.6457 15.7593 13.8573 14.8083 14.8083C13.8573 15.7593 12.6457 16.407 11.3266 16.6693C10.0075 16.9317 8.64029 16.7971 7.39776 16.2824C6.15522 15.7677 5.0932 14.8961 4.34601 13.7779C3.59882 12.6596 3.2 11.3449 3.2 10C3.20212 8.19718 3.91923 6.4688 5.19402 5.19401C6.4688 3.91922 8.19718 3.20212 10 3.2V3.2ZM10 0C8.02219 0 6.08879 0.58649 4.4443 1.6853C2.79981 2.78412 1.51809 4.3459 0.761209 6.17316C0.00433283 8.00043 -0.1937 10.0111 0.192152 11.9509C0.578004 13.8907 1.53041 15.6725 2.92894 17.0711C4.32746 18.4696 6.10929 19.422 8.0491 19.8078C9.98891 20.1937 11.9996 19.9957 13.8268 19.2388C15.6541 18.4819 17.2159 17.2002 18.3147 15.5557C19.4135 13.9112 20 11.9778 20 10C20 7.34783 18.9464 4.80429 17.0711 2.92893C15.1957 1.05357 12.6522 0 10 0V0Z" fill="white"/>
<path d="M10 13.6C11.9882 13.6 13.6 11.9882 13.6 10C13.6 8.0118 11.9882 6.40002 10 6.40002C8.0118 6.40002 6.40002 8.0118 6.40002 10C6.40002 11.9882 8.0118 13.6 10 13.6Z" fill="white"/>
</svg>
